<svg xmlns="http://www.w3.org/2000/svg" version="1.1" xmlns:xlink="http://www.w3.org/1999/xlink" xmlns:svgjs="http://svgjs.dev/svgjs" width="2000" height="459" viewBox="0 0 2000 459"><g transform="matrix(1,0,0,1,-1.2121212121212466,-1.2918804827960741)"><svg viewBox="0 0 396 91" data-background-color="#000000" preserveAspectRatio="xMidYMid meet" height="459" width="2000" xmlns="http://www.w3.org/2000/svg" xmlns:xlink="http://www.w3.org/1999/xlink"><g id="tight-bounds" transform="matrix(1,0,0,1,0.2400000000000091,0.2561244530162128)"><svg viewBox="0 0 395.52 90.48775109396757" height="90.48775109396757" width="395.52"><g><svg viewBox="0 0 545.3198931725406 124.7592302790904" height="90.48775109396757" width="395.52"><g transform="matrix(1,0,0,1,149.79989317254064,35.8620287548108)"><svg viewBox="0 0 395.52 53.0351727694688" height="53.0351727694688" width="395.52"><g id="textblocktransform"><svg viewBox="0 0 395.52 53.0351727694688" height="53.0351727694688" width="395.52" id="textblock"><g><svg viewBox="0 0 395.52 53.0351727694688" height="53.0351727694688" width="395.52"><g transform="matrix(1,0,0,1,0,0)"><svg width="395.52" viewBox="6.25 -38.4 286.88 39" height="53.0351727694688" data-palette-color="url(#1316310a-f8ad-4aed-a7d7-1f6d3e2562fe)"><g class="wordmark-text-0" data-fill-palette-color="primary" id="text-0"></g></svg></g></svg></g></svg></g></svg></g><g><svg viewBox="0 0 124.7592302790904 124.7592302790904" height="124.7592302790904" width="124.7592302790904"><g><svg></svg></g><g id="icon-0"><svg viewBox="0 0 124.7592302790904 124.7592302790904" height="124.7592302790904" width="124.7592302790904"><g></g><g transform="matrix(1,0,0,1,30.255649520808987,30.294446580735)"><svg viewBox="0 0 64.24793123747243 64.1703371176204" height="64.1703371176204" width="64.24793123747243"><g><svg xmlns="http://www.w3.org/2000/svg" xmlns:xlink="http://www.w3.org/1999/xlink" version="1.1" x="0" y="0" viewBox="3.7 4.3 82.8 82.7" enable-background="new 0 0 90 90" xml:space="preserve" height="64.1703371176204" width="64.24793123747243" class="icon-dxe-0" data-fill-palette-color="accent" id="dxe-0"></svg></g></svg></g></svg></g></svg></g></svg></g><defs></defs><mask id="71aefabd-0f2e-474f-afc8-de5cef8dbed7"><g id="SvgjsG2037"><svg viewBox="0 0 395.52 90.48775109396757" height="90.48775109396757" width="395.52"><g><svg viewBox="0 0 545.3198931725406 124.7592302790904" height="90.48775109396757" width="395.52"><g transform="matrix(1,0,0,1,149.79989317254064,35.8620287548108)"><svg viewBox="0 0 395.52 53.0351727694688" height="53.0351727694688" width="395.52"><g id="SvgjsG2036"><svg viewBox="0 0 395.52 53.0351727694688" height="53.0351727694688" width="395.52" id="SvgjsSvg2035"><g><svg viewBox="0 0 395.52 53.0351727694688" height="53.0351727694688" width="395.52"><g transform="matrix(1,0,0,1,0,0)"><svg width="395.52" viewBox="6.25 -38.4 286.88 39" height="53.0351727694688" data-palette-color="url(#1316310a-f8ad-4aed-a7d7-1f6d3e2562fe)"><g class="wordmark-text-0" data-fill-palette-color="primary" id="SvgjsG2034"><path d="M18-34.8Q25.75-34.8 29.85-30.2 33.95-25.6 33.95-17.4L33.95-17.4Q33.95-9.2 29.85-4.6 25.75 0 18 0L18 0 6.25 0 6.25-34.8 18-34.8ZM18.35-4.2Q23.75-4.2 26.48-7.73 29.2-11.25 29.2-17.4L29.2-17.4Q29.2-23.55 26.48-27.08 23.75-30.6 18.35-30.6L18.35-30.6 10.65-30.6 10.65-4.2 18.35-4.2ZM45.25 0L45.25-34.8 49.65-34.8 49.65-4.2 65.35-4.2 65.35 0 45.25 0ZM88.55-18.15Q91.59-16.95 93.32-14.68 95.05-12.4 95.05-9.4L95.05-9.4Q95.05-6.5 93.4-4.23 91.75-1.95 88.77-0.68 85.8 0.6 82 0.6L82 0.6Q79.3 0.6 76.87-0.1 74.45-0.8 71.95-2.25L71.95-2.25 71.95-6.85 72.15-6.85Q74.7-5.1 77.07-4.28 79.45-3.45 81.95-3.45L81.95-3.45Q85.75-3.45 88.09-5.2 90.45-6.95 90.45-9.75L90.45-9.75Q90.45-12.7 87.82-14.43 85.2-16.15 80.75-16.15L80.75-16.15 78.55-16.15 78.55-20.1 80.75-20.1Q85.05-20.1 87.4-21.58 89.75-23.05 89.75-25.7L89.75-25.7Q89.75-28.3 87.67-29.8 85.59-31.3 82.05-31.3L82.05-31.3Q79.9-31.3 77.82-30.68 75.75-30.05 73.2-28.6L73.2-28.6 73-28.6 73-32.95Q77.45-35.4 82.34-35.4L82.34-35.4Q85.9-35.4 88.59-34.27 91.3-33.15 92.77-31.1 94.25-29.05 94.25-26.35L94.25-26.35Q94.25-23.6 92.72-21.45 91.2-19.3 88.55-18.15L88.55-18.15Z" fill="white"></path><path d="M125.35 0.6Q122.45 0.6 119.3-0.15 116.15-0.9 113.35-2.2L113.35-2.2 113.35-6.95Q116.65-5.15 119.47-4.3 122.3-3.45 125.05-3.45L125.05-3.45Q128.5-3.45 130.4-5 132.3-6.55 132.3-9.25L132.3-9.25Q132.3-11.1 131.25-12.35 130.2-13.6 128.6-14.35 127-15.1 124.3-16L124.3-16Q121.05-17.1 119.07-18.1 117.1-19.1 115.7-20.95 114.3-22.8 114.3-25.75L114.3-25.75Q114.3-30.15 117.5-32.77 120.7-35.4 126.1-35.4L126.1-35.4Q131.35-35.4 135.75-33.15L135.75-33.15 135.75-28.55Q130.8-31.35 126.1-31.35L126.1-31.35Q122.65-31.35 120.7-29.98 118.75-28.6 118.75-26.2L118.75-26.2Q118.75-24.55 119.75-23.45 120.75-22.35 122.2-21.68 123.65-21 126.3-20.05L126.3-20.05Q129.6-18.95 131.7-17.9 133.8-16.85 135.27-14.85 136.75-12.85 136.75-9.7L136.75-9.7Q136.75-6.6 135.35-4.28 133.95-1.95 131.35-0.68 128.75 0.6 125.35 0.6L125.35 0.6ZM151.7-35.4L151.7-26.1 158.9-26.1 158.9-22.3 151.7-22.3 151.7-7.35Q151.7-5.5 152.52-4.38 153.35-3.25 154.95-3.25L154.95-3.25Q156.05-3.25 156.92-3.48 157.8-3.7 158.9-4.2L158.9-4.2 158.9-0.3Q157.75 0.25 156.7 0.43 155.65 0.6 154.15 0.6L154.15 0.6Q150.95 0.6 149.12-1.45 147.3-3.5 147.3-6.9L147.3-6.9 147.3-22.3 142.3-22.3 142.3-26.1 147.3-26.1 147.3-33.1 151.7-35.4ZM188.39 0L183.99 0 183.29-3.65Q180.99-1.5 178.87-0.45 176.74 0.6 173.89 0.6L173.89 0.6Q170.34 0.6 168.37-1.75 166.39-4.1 166.39-8L166.39-8 166.39-26.1 170.79-26.1 170.79-8.6Q170.79-6.2 171.89-4.78 172.99-3.35 175.04-3.35L175.04-3.35Q177.39-3.35 179.17-4.2 180.94-5.05 182.89-6.75L182.89-6.75 182.89-26.1 187.29-26.1 187.29-5.8 188.39 0ZM220.89 0L216.49 0 215.84-3.45Q214.04-1.45 211.79-0.45 209.54 0.55 206.74 0.55L206.74 0.55Q201.89 0.55 199.29-3.2 196.69-6.95 196.69-12.8L196.69-12.8Q196.69-16.8 198.12-19.95 199.54-23.1 202.22-24.9 204.89-26.7 208.59-26.7L208.59-26.7Q210.39-26.7 211.99-26.28 213.59-25.85 215.39-25.05L215.39-25.05 215.39-37.7 219.79-37.7 219.79-5.8 220.89 0ZM207.44-3.5Q209.84-3.5 211.72-4.48 213.59-5.45 215.39-7.35L215.39-7.35 215.39-21.7Q212.19-22.8 209.04-22.8L209.04-22.8Q205.39-22.8 203.42-20.03 201.44-17.25 201.44-12.9L201.44-12.9Q201.44-8.75 202.87-6.13 204.29-3.5 207.44-3.5L207.44-3.5ZM232.04-32Q230.64-32 229.76-32.9 228.89-33.8 228.89-35.2L228.89-35.2Q228.89-36.6 229.76-37.5 230.64-38.4 232.04-38.4L232.04-38.4Q233.44-38.4 234.31-37.5 235.19-36.6 235.19-35.2L235.19-35.2Q235.19-33.8 234.31-32.9 233.44-32 232.04-32L232.04-32ZM229.84-26.1L234.24-26.1 234.24 0 229.84 0 229.84-26.1ZM255.04 0.6Q249.34 0.6 246.14-3.13 242.94-6.85 242.94-13.05L242.94-13.05Q242.94-19.25 246.14-22.98 249.34-26.7 255.04-26.7L255.04-26.7Q260.74-26.7 263.94-22.98 267.14-19.25 267.14-13.05L267.14-13.05Q267.14-6.85 263.94-3.13 260.74 0.6 255.04 0.6L255.04 0.6ZM255.04-3.2Q258.69-3.2 260.54-5.9 262.39-8.6 262.39-13.05L262.39-13.05Q262.39-17.5 260.54-20.2 258.69-22.9 255.04-22.9L255.04-22.9Q251.39-22.9 249.56-20.2 247.74-17.5 247.74-13.05L247.74-13.05Q247.74-8.6 249.56-5.9 251.39-3.2 255.04-3.2L255.04-3.2ZM283.03 0.6Q280.63 0.6 278.31-0.13 275.98-0.85 273.93-2.2L273.93-2.2 273.93-6.8Q278.48-3.3 282.93-3.3L282.93-3.3Q285.53-3.3 287.13-4.38 288.73-5.45 288.73-7.25L288.73-7.25Q288.73-8.5 287.96-9.3 287.18-10.1 286.03-10.55 284.88-11 282.73-11.65L282.73-11.65Q280.08-12.4 278.36-13.13 276.63-13.85 275.43-15.28 274.23-16.7 274.23-19L274.23-19Q274.23-22.5 276.88-24.6 279.53-26.7 283.83-26.7L283.83-26.7Q288.13-26.7 291.63-24.45L291.63-24.45 291.63-20Q289.68-21.5 287.86-22.15 286.03-22.8 284.03-22.8L284.03-22.8Q281.53-22.8 280.08-21.9 278.63-21 278.63-19.4L278.63-19.4Q278.63-18.25 279.41-17.5 280.18-16.75 281.33-16.3 282.48-15.85 284.63-15.2L284.63-15.2Q287.33-14.4 289.03-13.68 290.73-12.95 291.93-11.48 293.13-10 293.13-7.65L293.13-7.65Q293.13-5.25 291.83-3.38 290.53-1.5 288.23-0.45 285.93 0.6 283.03 0.6L283.03 0.6Z" fill="black"></path></g></svg></g></svg></g></svg></g></svg></g><g><svg viewBox="0 0 124.7592302790904 124.7592302790904" height="124.7592302790904" width="124.7592302790904"><g><svg></svg></g><g id="SvgjsG2033"><svg viewBox="0 0 124.7592302790904 124.7592302790904" height="124.7592302790904" width="124.7592302790904"><g><path d="M0 62.38c0-34.451 27.928-62.38 62.38-62.38 34.451 0 62.38 27.928 62.379 62.38 0 34.451-27.928 62.38-62.379 62.379-34.451 0-62.38-27.928-62.38-62.379zM62.38 119.976c31.81 0 57.597-25.787 57.596-57.596 0-31.81-25.787-57.597-57.596-57.597-31.81 0-57.597 25.787-57.597 57.597 0 31.81 25.787 57.597 57.597 57.596z" fill="black" stroke="transparent"></path></g><g transform="matrix(1,0,0,1,30.255649520808987,30.294446580735)"><svg viewBox="0 0 64.24793123747243 64.1703371176204" height="64.1703371176204" width="64.24793123747243"><g><svg xmlns="http://www.w3.org/2000/svg" xmlns:xlink="http://www.w3.org/1999/xlink" version="1.1" x="0" y="0" viewBox="3.7 4.3 82.8 82.7" enable-background="new 0 0 90 90" xml:space="preserve" height="64.1703371176204" width="64.24793123747243" class="icon-dxe-0" data-fill-palette-color="accent" id="SvgjsSvg2032"><g fill="black"><path fill="black" d="M45.1 87C22.3 87 3.8 68.5 3.8 45.7S22.3 4.3 45.1 4.3 86.5 22.9 86.5 45.7 67.9 87 45.1 87M45.1 6.3C23.4 6.3 5.8 23.9 5.8 45.7 5.8 67.4 23.4 85 45.1 85S84.5 67.3 84.5 45.6 66.8 6.3 45.1 6.3"></path><path fill="black" d="M45 87C33 87 22.6 68.4 22.6 45.6S33 4.3 45 4.3V6.3C34 6.3 24.6 24 24.6 45.7S34 85 45 85z"></path><path fill="black" d="M45 87V85C56 85 65.4 67.3 65.4 45.6S56 6.3 45 6.3V4.3C57 4.3 67.4 22.9 67.4 45.7S57 87 45 87"></path><path fill="black" d="M43 87V85S42.4 85.2 42.3 85.2C43.2 83.8 44.5 69.3 44.5 45.6S43.3 7.4 42.4 6C42.4 6.1 43 6.3 43 6.3V4.3C44 4.3 44.9 4.3 45.8 17.1 46.3 24.7 46.5 34.9 46.5 45.7S46.3 66.7 45.8 74.3C45 87 44 87 43 87"></path><path fill="black" d="M86.4 43H84.4C84.4 32 66.7 22.6 45 22.6 23.4 22.6 5.7 32 5.7 43H3.7C3.7 31 22.3 20.6 45.1 20.6S86.4 31 86.4 43"></path><path fill="black" d="M86.4 44H84.4C84.4 42 70.9 38.3 45 38.3 19.2 38.3 5.7 42 5.7 44H3.7C3.7 37 30.8 36.3 45.1 36.3S86.4 37 86.4 44"></path><path fill="black" d="M45.1 73.4C22.3 73.4 3.7 63 3.7 51H5.7C5.7 62 23.4 71.4 45.1 71.4S84.5 62 84.5 51H86.5C86.4 63 67.9 73.4 45.1 73.4"></path><path fill="black" d="M45.1 57.3C25 57.3 3.7 54 3.7 47H5.7C5.7 49 8.6 50.8 16.7 52.6 24.3 54.3 34.3 55.3 45 55.3S65.8 54.3 73.3 52.6C81.4 50.7 84.3 49 84.3 47H86.3C86.4 54 65.1 57.3 45.1 57.3"></path></g></svg></g></svg></g></svg></g></svg></g></svg></g><defs><mask></mask></defs></svg><rect width="395.52" height="90.48775109396757" fill="black" stroke="none" visibility="hidden"></rect></g></mask><linearGradient x1="0" x2="1" y1="0.548" y2="0.55" id="1316310a-f8ad-4aed-a7d7-1f6d3e2562fe"><stop stop-color="#ff6cab" offset="0"></stop><stop stop-color="#7366ff" offset="1"></stop></linearGradient><rect width="395.52" height="90.48775109396757" fill="url(#1316310a-f8ad-4aed-a7d7-1f6d3e2562fe)" mask="url(#71aefabd-0f2e-474f-afc8-de5cef8dbed7)" data-fill-palette-color="primary"></rect><mask id="592cfa67-f4b4-4efb-b663-224b47c684ad"><g id="SvgjsG2049"><svg viewBox="0 0 395.52 90.48775109396757" height="90.48775109396757" width="395.52"><g><svg viewBox="0 0 545.3198931725406 124.7592302790904" height="90.48775109396757" width="395.52"><g transform="matrix(1,0,0,1,149.79989317254064,35.8620287548108)"><svg viewBox="0 0 395.52 53.0351727694688" height="53.0351727694688" width="395.52"><g id="SvgjsG2048"><svg viewBox="0 0 395.52 53.0351727694688" height="53.0351727694688" width="395.52" id="SvgjsSvg2047"><g><svg viewBox="0 0 395.52 53.0351727694688" height="53.0351727694688" width="395.52"><g transform="matrix(1,0,0,1,0,0)"><svg width="395.52" viewBox="6.25 -38.4 286.88 39" height="53.0351727694688" data-palette-color="url(#1316310a-f8ad-4aed-a7d7-1f6d3e2562fe)"><g class="wordmark-text-0" data-fill-palette-color="primary" id="SvgjsG2046"><path d="M125.35 0.6Q122.45 0.6 119.3-0.15 116.15-0.9 113.35-2.2L113.35-2.2 113.35-6.95Q116.65-5.15 119.47-4.3 122.3-3.45 125.05-3.45L125.05-3.45Q128.5-3.45 130.4-5 132.3-6.55 132.3-9.25L132.3-9.25Q132.3-11.1 131.25-12.35 130.2-13.6 128.6-14.35 127-15.1 124.3-16L124.3-16Q121.05-17.1 119.07-18.1 117.1-19.1 115.7-20.95 114.3-22.8 114.3-25.75L114.3-25.75Q114.3-30.15 117.5-32.77 120.7-35.4 126.1-35.4L126.1-35.4Q131.35-35.4 135.75-33.15L135.75-33.15 135.75-28.55Q130.8-31.35 126.1-31.35L126.1-31.35Q122.65-31.35 120.7-29.98 118.75-28.6 118.75-26.2L118.75-26.2Q118.75-24.55 119.75-23.45 120.75-22.35 122.2-21.68 123.65-21 126.3-20.05L126.3-20.05Q129.6-18.95 131.7-17.9 133.8-16.85 135.27-14.85 136.75-12.85 136.75-9.7L136.75-9.7Q136.75-6.6 135.35-4.28 133.95-1.95 131.35-0.68 128.75 0.6 125.35 0.6L125.35 0.6ZM151.7-35.4L151.7-26.1 158.9-26.1 158.9-22.3 151.7-22.3 151.7-7.35Q151.7-5.5 152.52-4.38 153.35-3.25 154.95-3.25L154.95-3.25Q156.05-3.25 156.92-3.48 157.8-3.7 158.9-4.2L158.9-4.2 158.9-0.3Q157.75 0.25 156.7 0.43 155.65 0.6 154.15 0.6L154.15 0.6Q150.95 0.6 149.12-1.45 147.3-3.5 147.3-6.9L147.3-6.9 147.3-22.3 142.3-22.3 142.3-26.1 147.3-26.1 147.3-33.1 151.7-35.4ZM188.39 0L183.99 0 183.29-3.65Q180.99-1.5 178.87-0.45 176.74 0.6 173.89 0.6L173.89 0.6Q170.34 0.6 168.37-1.75 166.39-4.1 166.39-8L166.39-8 166.39-26.1 170.79-26.1 170.79-8.6Q170.79-6.2 171.89-4.78 172.99-3.35 175.04-3.35L175.04-3.35Q177.39-3.35 179.17-4.2 180.94-5.05 182.89-6.75L182.89-6.75 182.89-26.1 187.29-26.1 187.29-5.8 188.39 0ZM220.89 0L216.49 0 215.84-3.45Q214.04-1.45 211.79-0.45 209.54 0.55 206.74 0.55L206.74 0.55Q201.89 0.55 199.29-3.2 196.69-6.95 196.69-12.8L196.69-12.8Q196.69-16.8 198.12-19.95 199.54-23.1 202.22-24.9 204.89-26.7 208.59-26.7L208.59-26.7Q210.39-26.7 211.99-26.28 213.59-25.85 215.39-25.05L215.39-25.05 215.39-37.7 219.79-37.7 219.79-5.8 220.89 0ZM207.44-3.5Q209.84-3.5 211.72-4.48 213.59-5.45 215.39-7.35L215.39-7.35 215.39-21.7Q212.19-22.8 209.04-22.8L209.04-22.8Q205.39-22.8 203.42-20.03 201.44-17.25 201.44-12.9L201.44-12.9Q201.44-8.75 202.87-6.13 204.29-3.5 207.44-3.5L207.44-3.5ZM232.04-32Q230.64-32 229.76-32.9 228.89-33.8 228.89-35.2L228.89-35.2Q228.89-36.6 229.76-37.5 230.64-38.4 232.04-38.4L232.04-38.4Q233.44-38.4 234.31-37.5 235.19-36.6 235.19-35.2L235.19-35.2Q235.19-33.8 234.31-32.9 233.44-32 232.04-32L232.04-32ZM229.84-26.1L234.24-26.1 234.24 0 229.84 0 229.84-26.1ZM255.04 0.6Q249.34 0.6 246.14-3.13 242.94-6.85 242.94-13.05L242.94-13.05Q242.94-19.25 246.14-22.98 249.34-26.7 255.04-26.7L255.04-26.7Q260.74-26.7 263.94-22.98 267.14-19.25 267.14-13.05L267.14-13.05Q267.14-6.85 263.94-3.13 260.74 0.6 255.04 0.6L255.04 0.6ZM255.04-3.2Q258.69-3.2 260.54-5.9 262.39-8.6 262.39-13.05L262.39-13.05Q262.39-17.5 260.54-20.2 258.69-22.9 255.04-22.9L255.04-22.9Q251.39-22.9 249.56-20.2 247.74-17.5 247.74-13.05L247.74-13.05Q247.74-8.6 249.56-5.9 251.39-3.2 255.04-3.2L255.04-3.2ZM283.03 0.6Q280.63 0.6 278.31-0.13 275.98-0.85 273.93-2.2L273.93-2.2 273.93-6.8Q278.48-3.3 282.93-3.3L282.93-3.3Q285.53-3.3 287.13-4.38 288.73-5.45 288.73-7.25L288.73-7.25Q288.73-8.5 287.96-9.3 287.18-10.1 286.03-10.55 284.88-11 282.73-11.65L282.73-11.65Q280.08-12.4 278.36-13.13 276.63-13.85 275.43-15.28 274.23-16.7 274.23-19L274.23-19Q274.23-22.5 276.88-24.6 279.53-26.7 283.83-26.7L283.83-26.7Q288.13-26.7 291.63-24.45L291.63-24.45 291.63-20Q289.68-21.5 287.86-22.15 286.03-22.8 284.03-22.8L284.03-22.8Q281.53-22.8 280.08-21.9 278.63-21 278.63-19.4L278.63-19.4Q278.63-18.25 279.41-17.5 280.18-16.75 281.33-16.3 282.48-15.85 284.63-15.2L284.63-15.2Q287.33-14.4 289.03-13.68 290.73-12.95 291.93-11.48 293.13-10 293.13-7.65L293.13-7.65Q293.13-5.25 291.83-3.38 290.53-1.5 288.23-0.45 285.93 0.6 283.03 0.6L283.03 0.6Z" fill="white"></path></g></svg></g></svg></g></svg></g></svg></g><g><svg viewBox="0 0 124.7592302790904 124.7592302790904" height="124.7592302790904" width="124.7592302790904"><g><svg></svg></g><g id="SvgjsG2045"><svg viewBox="0 0 124.7592302790904 124.7592302790904" height="124.7592302790904" width="124.7592302790904"><g><path d="M0 62.38c0-34.451 27.928-62.38 62.38-62.38 34.451 0 62.38 27.928 62.379 62.38 0 34.451-27.928 62.38-62.379 62.379-34.451 0-62.38-27.928-62.38-62.379zM62.38 119.976c31.81 0 57.597-25.787 57.596-57.596 0-31.81-25.787-57.597-57.596-57.597-31.81 0-57.597 25.787-57.597 57.597 0 31.81 25.787 57.597 57.597 57.596z" fill="black" stroke="transparent"></path></g><g transform="matrix(1,0,0,1,30.255649520808987,30.294446580735)"><svg viewBox="0 0 64.24793123747243 64.1703371176204" height="64.1703371176204" width="64.24793123747243"><g><svg xmlns="http://www.w3.org/2000/svg" xmlns:xlink="http://www.w3.org/1999/xlink" version="1.1" x="0" y="0" viewBox="3.7 4.3 82.8 82.7" enable-background="new 0 0 90 90" xml:space="preserve" height="64.1703371176204" width="64.24793123747243" class="icon-dxe-0" data-fill-palette-color="accent" id="SvgjsSvg2044"><g fill="black"><path fill="black" d="M45.1 87C22.3 87 3.8 68.5 3.8 45.7S22.3 4.3 45.1 4.3 86.5 22.9 86.5 45.7 67.9 87 45.1 87M45.1 6.3C23.4 6.3 5.8 23.9 5.8 45.7 5.8 67.4 23.4 85 45.1 85S84.5 67.3 84.5 45.6 66.8 6.3 45.1 6.3"></path><path fill="black" d="M45 87C33 87 22.6 68.4 22.6 45.6S33 4.3 45 4.3V6.3C34 6.3 24.6 24 24.6 45.7S34 85 45 85z"></path><path fill="black" d="M45 87V85C56 85 65.4 67.3 65.4 45.6S56 6.3 45 6.3V4.3C57 4.3 67.4 22.9 67.4 45.7S57 87 45 87"></path><path fill="black" d="M43 87V85S42.4 85.2 42.3 85.2C43.2 83.8 44.5 69.3 44.5 45.6S43.3 7.4 42.4 6C42.4 6.1 43 6.3 43 6.3V4.3C44 4.3 44.9 4.3 45.8 17.1 46.3 24.7 46.5 34.9 46.5 45.7S46.3 66.7 45.8 74.3C45 87 44 87 43 87"></path><path fill="black" d="M86.4 43H84.4C84.4 32 66.7 22.6 45 22.6 23.4 22.6 5.7 32 5.7 43H3.7C3.7 31 22.3 20.6 45.1 20.6S86.4 31 86.4 43"></path><path fill="black" d="M86.4 44H84.4C84.4 42 70.9 38.3 45 38.3 19.2 38.3 5.7 42 5.7 44H3.7C3.7 37 30.8 36.3 45.1 36.3S86.4 37 86.4 44"></path><path fill="black" d="M45.1 73.4C22.3 73.4 3.7 63 3.7 51H5.7C5.7 62 23.4 71.4 45.1 71.4S84.5 62 84.5 51H86.5C86.4 63 67.9 73.4 45.1 73.4"></path><path fill="black" d="M45.1 57.3C25 57.3 3.7 54 3.7 47H5.7C5.7 49 8.6 50.8 16.7 52.6 24.3 54.3 34.3 55.3 45 55.3S65.8 54.3 73.3 52.6C81.4 50.7 84.3 49 84.3 47H86.3C86.4 54 65.1 57.3 45.1 57.3"></path></g></svg></g></svg></g></svg></g></svg></g></svg></g><defs><mask></mask></defs><mask><g id="SvgjsG2043"><svg viewBox="0 0 395.52 90.48775109396757" height="90.48775109396757" width="395.52"><g><svg viewBox="0 0 545.3198931725406 124.7592302790904" height="90.48775109396757" width="395.52"><g transform="matrix(1,0,0,1,149.79989317254064,35.8620287548108)"><svg viewBox="0 0 395.52 53.0351727694688" height="53.0351727694688" width="395.52"><g id="SvgjsG2042"><svg viewBox="0 0 395.52 53.0351727694688" height="53.0351727694688" width="395.52" id="SvgjsSvg2041"><g><svg viewBox="0 0 395.52 53.0351727694688" height="53.0351727694688" width="395.52"><g transform="matrix(1,0,0,1,0,0)"><svg width="395.52" viewBox="6.25 -38.4 286.88 39" height="53.0351727694688" data-palette-color="url(#1316310a-f8ad-4aed-a7d7-1f6d3e2562fe)"><g class="wordmark-text-0" data-fill-palette-color="primary" id="SvgjsG2040"><path d="M18-34.8Q25.75-34.8 29.85-30.2 33.95-25.6 33.95-17.4L33.95-17.4Q33.95-9.2 29.85-4.6 25.75 0 18 0L18 0 6.25 0 6.25-34.8 18-34.8ZM18.35-4.2Q23.75-4.2 26.48-7.73 29.2-11.25 29.2-17.4L29.2-17.4Q29.2-23.55 26.48-27.08 23.75-30.6 18.35-30.6L18.35-30.6 10.65-30.6 10.65-4.2 18.35-4.2ZM45.25 0L45.25-34.8 49.65-34.8 49.65-4.2 65.35-4.2 65.35 0 45.25 0ZM88.55-18.15Q91.59-16.95 93.32-14.68 95.05-12.4 95.05-9.4L95.05-9.4Q95.05-6.5 93.4-4.23 91.75-1.95 88.77-0.68 85.8 0.6 82 0.6L82 0.6Q79.3 0.6 76.87-0.1 74.45-0.8 71.95-2.25L71.95-2.25 71.95-6.85 72.15-6.85Q74.7-5.1 77.07-4.28 79.45-3.45 81.95-3.45L81.95-3.45Q85.75-3.45 88.09-5.2 90.45-6.95 90.45-9.75L90.45-9.75Q90.45-12.7 87.82-14.43 85.2-16.15 80.75-16.15L80.75-16.15 78.55-16.15 78.55-20.1 80.75-20.1Q85.05-20.1 87.4-21.58 89.75-23.05 89.75-25.7L89.75-25.7Q89.75-28.3 87.67-29.8 85.59-31.3 82.05-31.3L82.05-31.3Q79.9-31.3 77.82-30.68 75.75-30.05 73.2-28.6L73.2-28.6 73-28.6 73-32.95Q77.45-35.4 82.34-35.4L82.34-35.4Q85.9-35.4 88.59-34.27 91.3-33.15 92.77-31.1 94.25-29.05 94.25-26.35L94.25-26.35Q94.25-23.6 92.72-21.45 91.2-19.3 88.55-18.15L88.55-18.15Z" fill="black"></path><path d="M125.35 0.6Q122.45 0.6 119.3-0.15 116.15-0.9 113.35-2.2L113.35-2.2 113.35-6.95Q116.65-5.15 119.47-4.3 122.3-3.45 125.05-3.45L125.05-3.45Q128.5-3.45 130.4-5 132.3-6.55 132.3-9.25L132.3-9.25Q132.3-11.1 131.25-12.35 130.2-13.6 128.6-14.35 127-15.1 124.3-16L124.3-16Q121.05-17.1 119.07-18.1 117.1-19.1 115.7-20.95 114.3-22.8 114.3-25.75L114.3-25.75Q114.3-30.15 117.5-32.77 120.7-35.4 126.1-35.4L126.1-35.4Q131.35-35.4 135.75-33.15L135.75-33.15 135.75-28.55Q130.8-31.35 126.1-31.35L126.1-31.35Q122.65-31.35 120.7-29.98 118.75-28.6 118.75-26.2L118.75-26.2Q118.75-24.55 119.75-23.45 120.75-22.35 122.2-21.68 123.65-21 126.3-20.05L126.3-20.05Q129.6-18.95 131.7-17.9 133.8-16.85 135.27-14.85 136.75-12.85 136.75-9.7L136.75-9.7Q136.75-6.6 135.35-4.28 133.95-1.95 131.35-0.68 128.75 0.6 125.35 0.6L125.35 0.6ZM151.7-35.4L151.7-26.1 158.9-26.1 158.9-22.3 151.7-22.3 151.7-7.35Q151.7-5.5 152.52-4.38 153.35-3.25 154.95-3.25L154.95-3.25Q156.05-3.25 156.92-3.48 157.8-3.7 158.9-4.2L158.9-4.2 158.9-0.3Q157.75 0.25 156.7 0.43 155.65 0.6 154.15 0.6L154.15 0.6Q150.95 0.6 149.12-1.45 147.3-3.5 147.3-6.9L147.3-6.9 147.3-22.3 142.3-22.3 142.3-26.1 147.3-26.1 147.3-33.1 151.7-35.4ZM188.39 0L183.99 0 183.29-3.65Q180.99-1.5 178.87-0.45 176.74 0.6 173.89 0.6L173.89 0.6Q170.34 0.6 168.37-1.75 166.39-4.1 166.39-8L166.39-8 166.39-26.1 170.79-26.1 170.79-8.6Q170.79-6.2 171.89-4.78 172.99-3.35 175.04-3.35L175.04-3.35Q177.39-3.35 179.17-4.2 180.94-5.05 182.89-6.75L182.89-6.75 182.89-26.1 187.29-26.1 187.29-5.8 188.39 0ZM220.89 0L216.49 0 215.84-3.45Q214.04-1.45 211.79-0.45 209.54 0.55 206.74 0.55L206.74 0.55Q201.89 0.55 199.29-3.2 196.69-6.95 196.69-12.8L196.69-12.8Q196.69-16.8 198.12-19.95 199.54-23.1 202.22-24.9 204.89-26.7 208.59-26.7L208.59-26.7Q210.39-26.7 211.99-26.28 213.59-25.85 215.39-25.05L215.39-25.05 215.39-37.7 219.79-37.7 219.79-5.8 220.89 0ZM207.44-3.5Q209.84-3.5 211.72-4.48 213.59-5.45 215.39-7.35L215.39-7.35 215.39-21.7Q212.19-22.8 209.04-22.8L209.04-22.8Q205.39-22.8 203.42-20.03 201.44-17.25 201.44-12.9L201.44-12.9Q201.44-8.75 202.87-6.13 204.29-3.5 207.44-3.5L207.44-3.5ZM232.04-32Q230.64-32 229.76-32.9 228.89-33.8 228.89-35.2L228.89-35.2Q228.89-36.6 229.76-37.5 230.64-38.4 232.04-38.4L232.04-38.4Q233.44-38.4 234.31-37.5 235.19-36.6 235.19-35.2L235.19-35.2Q235.19-33.8 234.31-32.9 233.44-32 232.04-32L232.04-32ZM229.84-26.1L234.24-26.1 234.24 0 229.84 0 229.84-26.1ZM255.04 0.6Q249.34 0.6 246.14-3.13 242.94-6.85 242.94-13.05L242.94-13.05Q242.94-19.25 246.14-22.98 249.34-26.7 255.04-26.7L255.04-26.7Q260.74-26.7 263.94-22.98 267.14-19.25 267.14-13.05L267.14-13.05Q267.14-6.85 263.94-3.13 260.74 0.6 255.04 0.6L255.04 0.6ZM255.04-3.2Q258.69-3.2 260.54-5.9 262.39-8.6 262.39-13.05L262.39-13.05Q262.39-17.5 260.54-20.2 258.69-22.9 255.04-22.9L255.04-22.9Q251.39-22.9 249.56-20.2 247.74-17.5 247.74-13.05L247.74-13.05Q247.74-8.6 249.56-5.9 251.39-3.2 255.04-3.2L255.04-3.2ZM283.03 0.6Q280.63 0.6 278.31-0.13 275.98-0.85 273.93-2.2L273.93-2.2 273.93-6.8Q278.48-3.3 282.93-3.3L282.93-3.3Q285.53-3.3 287.13-4.38 288.73-5.45 288.73-7.25L288.73-7.25Q288.73-8.5 287.96-9.3 287.18-10.1 286.03-10.55 284.88-11 282.73-11.65L282.73-11.65Q280.08-12.4 278.36-13.13 276.63-13.85 275.43-15.28 274.23-16.7 274.23-19L274.23-19Q274.23-22.5 276.88-24.6 279.53-26.7 283.83-26.7L283.83-26.7Q288.13-26.7 291.63-24.45L291.63-24.45 291.63-20Q289.68-21.5 287.86-22.15 286.03-22.8 284.03-22.8L284.03-22.8Q281.53-22.8 280.08-21.9 278.63-21 278.63-19.4L278.63-19.4Q278.63-18.25 279.41-17.5 280.18-16.75 281.33-16.3 282.48-15.85 284.63-15.2L284.63-15.2Q287.33-14.4 289.03-13.68 290.73-12.95 291.93-11.48 293.13-10 293.13-7.65L293.13-7.65Q293.13-5.25 291.83-3.38 290.53-1.5 288.23-0.45 285.93 0.6 283.03 0.6L283.03 0.6Z" fill="black"></path></g></svg></g></svg></g></svg></g></svg></g><g><svg viewBox="0 0 124.7592302790904 124.7592302790904" height="124.7592302790904" width="124.7592302790904"><g><svg></svg></g><g id="SvgjsG2039"><svg viewBox="0 0 124.7592302790904 124.7592302790904" height="124.7592302790904" width="124.7592302790904"><g><path d="M0 62.38c0-34.451 27.928-62.38 62.38-62.38 34.451 0 62.38 27.928 62.379 62.38 0 34.451-27.928 62.38-62.379 62.379-34.451 0-62.38-27.928-62.38-62.379zM62.38 119.976c31.81 0 57.597-25.787 57.596-57.596 0-31.81-25.787-57.597-57.596-57.597-31.81 0-57.597 25.787-57.597 57.597 0 31.81 25.787 57.597 57.597 57.596z" fill="black" stroke="transparent"></path></g><g transform="matrix(1,0,0,1,30.255649520808987,30.294446580735)"><svg viewBox="0 0 64.24793123747243 64.1703371176204" height="64.1703371176204" width="64.24793123747243"><g><svg xmlns="http://www.w3.org/2000/svg" xmlns:xlink="http://www.w3.org/1999/xlink" version="1.1" x="0" y="0" viewBox="3.7 4.3 82.8 82.7" enable-background="new 0 0 90 90" xml:space="preserve" height="64.1703371176204" width="64.24793123747243" class="icon-dxe-0" data-fill-palette-color="accent" id="SvgjsSvg2038"><g fill="black"><path fill="black" d="M45.1 87C22.3 87 3.8 68.5 3.8 45.7S22.3 4.3 45.1 4.3 86.5 22.9 86.5 45.7 67.9 87 45.1 87M45.1 6.3C23.4 6.3 5.8 23.9 5.8 45.7 5.8 67.4 23.4 85 45.1 85S84.5 67.3 84.5 45.6 66.8 6.3 45.1 6.3"></path><path fill="black" d="M45 87C33 87 22.6 68.4 22.6 45.6S33 4.3 45 4.3V6.3C34 6.3 24.6 24 24.6 45.7S34 85 45 85z"></path><path fill="black" d="M45 87V85C56 85 65.4 67.3 65.4 45.6S56 6.3 45 6.3V4.3C57 4.3 67.4 22.9 67.4 45.7S57 87 45 87"></path><path fill="black" d="M43 87V85S42.4 85.2 42.3 85.2C43.2 83.8 44.5 69.3 44.5 45.6S43.3 7.4 42.4 6C42.4 6.1 43 6.3 43 6.3V4.3C44 4.3 44.9 4.3 45.8 17.1 46.3 24.7 46.5 34.9 46.5 45.7S46.3 66.7 45.8 74.3C45 87 44 87 43 87"></path><path fill="black" d="M86.4 43H84.4C84.4 32 66.7 22.6 45 22.6 23.4 22.6 5.7 32 5.7 43H3.7C3.7 31 22.3 20.6 45.1 20.6S86.4 31 86.4 43"></path><path fill="black" d="M86.4 44H84.4C84.4 42 70.9 38.3 45 38.3 19.2 38.3 5.7 42 5.7 44H3.7C3.7 37 30.8 36.3 45.1 36.3S86.4 37 86.4 44"></path><path fill="black" d="M45.1 73.4C22.3 73.4 3.7 63 3.7 51H5.7C5.7 62 23.4 71.4 45.1 71.4S84.5 62 84.5 51H86.5C86.4 63 67.9 73.4 45.1 73.4"></path><path fill="black" d="M45.1 57.3C25 57.3 3.7 54 3.7 47H5.7C5.7 49 8.6 50.8 16.7 52.6 24.3 54.3 34.3 55.3 45 55.3S65.8 54.3 73.3 52.6C81.4 50.7 84.3 49 84.3 47H86.3C86.4 54 65.1 57.3 45.1 57.3"></path></g></svg></g></svg></g></svg></g></svg></g></svg></g><defs><mask></mask></defs></svg><rect width="395.52" height="90.48775109396757" fill="black" stroke="none" visibility="hidden"></rect></g></mask></svg><rect width="395.52" height="90.48775109396757" fill="black" stroke="none" visibility="hidden"></rect></g></mask><linearGradient x1="0" x2="1" y1="0.548" y2="0.55" id="5bdbc4e5-52ca-4edd-8155-a77b28eb769e"><stop stop-color="#ff6cab" offset="0"></stop><stop stop-color="#7366ff" offset="1"></stop></linearGradient><rect width="395.52" height="90.48775109396757" fill="url(#5bdbc4e5-52ca-4edd-8155-a77b28eb769e)" mask="url(#592cfa67-f4b4-4efb-b663-224b47c684ad)" data-fill-palette-color="secondary"></rect><mask id="74c62e06-a9ab-4dfa-ab4c-0a8d0f4e7630"><g id="SvgjsG2073"><svg viewBox="0 0 395.52 90.48775109396757" height="90.48775109396757" width="395.52"><g><svg viewBox="0 0 545.3198931725406 124.7592302790904" height="90.48775109396757" width="395.52"><g transform="matrix(1,0,0,1,149.79989317254064,35.8620287548108)"><svg viewBox="0 0 395.52 53.0351727694688" height="53.0351727694688" width="395.52"><g id="SvgjsG2072"><svg viewBox="0 0 395.52 53.0351727694688" height="53.0351727694688" width="395.52" id="SvgjsSvg2071"><g><svg viewBox="0 0 395.52 53.0351727694688" height="53.0351727694688" width="395.52"><g transform="matrix(1,0,0,1,0,0)"><svg width="395.52" viewBox="6.25 -38.4 286.88 39" height="53.0351727694688" data-palette-color="url(#1316310a-f8ad-4aed-a7d7-1f6d3e2562fe)"><g class="wordmark-text-0" data-fill-palette-color="primary" id="SvgjsG2070"></g></svg></g></svg></g></svg></g></svg></g><g><svg viewBox="0 0 124.7592302790904 124.7592302790904" height="124.7592302790904" width="124.7592302790904"><g><svg></svg></g><g id="SvgjsG2069"><svg viewBox="0 0 124.7592302790904 124.7592302790904" height="124.7592302790904" width="124.7592302790904"><g><path d="M0 62.38c0-34.451 27.928-62.38 62.38-62.38 34.451 0 62.38 27.928 62.379 62.38 0 34.451-27.928 62.38-62.379 62.379-34.451 0-62.38-27.928-62.38-62.379zM62.38 119.976c31.81 0 57.597-25.787 57.596-57.596 0-31.81-25.787-57.597-57.596-57.597-31.81 0-57.597 25.787-57.597 57.597 0 31.81 25.787 57.597 57.597 57.596z" fill="white" stroke="transparent"></path></g><g transform="matrix(1,0,0,1,30.255649520808987,30.294446580735)"><svg viewBox="0 0 64.24793123747243 64.1703371176204" height="64.1703371176204" width="64.24793123747243"><g><svg xmlns="http://www.w3.org/2000/svg" xmlns:xlink="http://www.w3.org/1999/xlink" version="1.1" x="0" y="0" viewBox="3.7 4.3 82.8 82.7" enable-background="new 0 0 90 90" xml:space="preserve" height="64.1703371176204" width="64.24793123747243" class="icon-dxe-0" data-fill-palette-color="accent" id="SvgjsSvg2068"><g fill="white"><path fill="white" d="M45.1 87C22.3 87 3.8 68.5 3.8 45.7S22.3 4.3 45.1 4.3 86.5 22.9 86.5 45.7 67.9 87 45.1 87M45.1 6.3C23.4 6.3 5.8 23.9 5.8 45.7 5.8 67.4 23.4 85 45.1 85S84.5 67.3 84.5 45.6 66.8 6.3 45.1 6.3"></path><path fill="white" d="M45 87C33 87 22.6 68.4 22.6 45.6S33 4.3 45 4.3V6.3C34 6.3 24.6 24 24.6 45.7S34 85 45 85z"></path><path fill="white" d="M45 87V85C56 85 65.4 67.3 65.4 45.6S56 6.3 45 6.3V4.3C57 4.3 67.4 22.9 67.4 45.7S57 87 45 87"></path><path fill="white" d="M43 87V85S42.4 85.2 42.3 85.2C43.2 83.8 44.5 69.3 44.5 45.6S43.3 7.4 42.4 6C42.4 6.1 43 6.3 43 6.3V4.3C44 4.3 44.9 4.3 45.8 17.1 46.3 24.7 46.5 34.9 46.5 45.7S46.3 66.7 45.8 74.3C45 87 44 87 43 87"></path><path fill="white" d="M86.4 43H84.4C84.4 32 66.7 22.6 45 22.6 23.4 22.6 5.7 32 5.7 43H3.7C3.7 31 22.3 20.6 45.1 20.6S86.4 31 86.4 43"></path><path fill="white" d="M86.4 44H84.4C84.4 42 70.9 38.3 45 38.3 19.2 38.3 5.7 42 5.7 44H3.7C3.7 37 30.8 36.3 45.1 36.3S86.4 37 86.4 44"></path><path fill="white" d="M45.1 73.4C22.3 73.4 3.7 63 3.7 51H5.7C5.7 62 23.4 71.4 45.1 71.4S84.5 62 84.5 51H86.5C86.4 63 67.9 73.4 45.1 73.4"></path><path fill="white" d="M45.1 57.3C25 57.3 3.7 54 3.7 47H5.7C5.7 49 8.6 50.8 16.7 52.6 24.3 54.3 34.3 55.3 45 55.3S65.8 54.3 73.3 52.6C81.4 50.7 84.3 49 84.3 47H86.3C86.4 54 65.1 57.3 45.1 57.3"></path></g></svg></g></svg></g></svg></g></svg></g></svg></g><defs><mask></mask></defs><mask><g id="SvgjsG2067"><svg viewBox="0 0 395.52 90.48775109396757" height="90.48775109396757" width="395.52"><g><svg viewBox="0 0 545.3198931725406 124.7592302790904" height="90.48775109396757" width="395.52"><g transform="matrix(1,0,0,1,149.79989317254064,35.8620287548108)"><svg viewBox="0 0 395.52 53.0351727694688" height="53.0351727694688" width="395.52"><g id="SvgjsG2066"><svg viewBox="0 0 395.52 53.0351727694688" height="53.0351727694688" width="395.52" id="SvgjsSvg2065"><g><svg viewBox="0 0 395.52 53.0351727694688" height="53.0351727694688" width="395.52"><g transform="matrix(1,0,0,1,0,0)"><svg width="395.52" viewBox="6.25 -38.4 286.88 39" height="53.0351727694688" data-palette-color="url(#1316310a-f8ad-4aed-a7d7-1f6d3e2562fe)"><g class="wordmark-text-0" data-fill-palette-color="primary" id="SvgjsG2064"><path d="M18-34.8Q25.75-34.8 29.85-30.2 33.95-25.6 33.95-17.4L33.95-17.4Q33.95-9.2 29.85-4.6 25.75 0 18 0L18 0 6.25 0 6.25-34.8 18-34.8ZM18.35-4.2Q23.75-4.2 26.48-7.73 29.2-11.25 29.2-17.4L29.2-17.4Q29.2-23.55 26.48-27.08 23.75-30.6 18.35-30.6L18.35-30.6 10.65-30.6 10.65-4.2 18.35-4.2ZM45.25 0L45.25-34.8 49.65-34.8 49.65-4.2 65.35-4.2 65.35 0 45.25 0ZM88.55-18.15Q91.59-16.95 93.32-14.68 95.05-12.4 95.05-9.4L95.05-9.4Q95.05-6.5 93.4-4.23 91.75-1.95 88.77-0.68 85.8 0.6 82 0.6L82 0.6Q79.3 0.6 76.87-0.1 74.45-0.8 71.95-2.25L71.95-2.25 71.95-6.85 72.15-6.85Q74.7-5.1 77.07-4.28 79.45-3.45 81.95-3.45L81.95-3.45Q85.75-3.45 88.09-5.2 90.45-6.95 90.45-9.75L90.45-9.75Q90.45-12.7 87.82-14.43 85.2-16.15 80.75-16.15L80.75-16.15 78.55-16.15 78.55-20.1 80.75-20.1Q85.05-20.1 87.4-21.58 89.75-23.05 89.75-25.7L89.75-25.7Q89.75-28.3 87.67-29.8 85.59-31.3 82.05-31.3L82.05-31.3Q79.9-31.3 77.82-30.68 75.75-30.05 73.2-28.6L73.2-28.6 73-28.6 73-32.95Q77.45-35.4 82.34-35.4L82.34-35.4Q85.9-35.4 88.59-34.27 91.3-33.15 92.77-31.1 94.25-29.05 94.25-26.35L94.25-26.35Q94.25-23.6 92.72-21.45 91.2-19.3 88.55-18.15L88.55-18.15Z" fill="black"></path><path d="M125.35 0.6Q122.45 0.6 119.3-0.15 116.15-0.9 113.35-2.2L113.35-2.2 113.35-6.95Q116.65-5.15 119.47-4.3 122.3-3.45 125.05-3.45L125.05-3.45Q128.5-3.45 130.4-5 132.3-6.55 132.3-9.25L132.3-9.25Q132.3-11.1 131.25-12.35 130.2-13.6 128.6-14.35 127-15.1 124.3-16L124.3-16Q121.05-17.1 119.07-18.1 117.1-19.1 115.7-20.95 114.3-22.8 114.3-25.75L114.3-25.75Q114.3-30.15 117.5-32.77 120.7-35.4 126.1-35.4L126.1-35.4Q131.35-35.4 135.75-33.15L135.75-33.15 135.75-28.55Q130.8-31.35 126.1-31.35L126.1-31.35Q122.65-31.35 120.7-29.98 118.75-28.6 118.75-26.2L118.75-26.2Q118.75-24.55 119.75-23.45 120.75-22.35 122.2-21.68 123.65-21 126.3-20.05L126.3-20.05Q129.6-18.95 131.7-17.9 133.8-16.85 135.27-14.85 136.75-12.85 136.75-9.7L136.75-9.7Q136.75-6.6 135.35-4.28 133.95-1.95 131.35-0.68 128.75 0.6 125.35 0.6L125.35 0.6ZM151.7-35.4L151.7-26.1 158.9-26.1 158.9-22.3 151.7-22.3 151.7-7.35Q151.7-5.5 152.52-4.38 153.35-3.25 154.95-3.25L154.95-3.25Q156.05-3.25 156.92-3.48 157.8-3.7 158.9-4.2L158.9-4.2 158.9-0.3Q157.75 0.25 156.7 0.43 155.65 0.6 154.15 0.6L154.15 0.6Q150.95 0.6 149.12-1.45 147.3-3.5 147.3-6.9L147.3-6.9 147.3-22.3 142.3-22.3 142.3-26.1 147.3-26.1 147.3-33.1 151.7-35.4ZM188.39 0L183.99 0 183.29-3.65Q180.99-1.5 178.87-0.45 176.74 0.6 173.89 0.6L173.89 0.6Q170.34 0.6 168.37-1.75 166.39-4.1 166.39-8L166.39-8 166.39-26.1 170.79-26.1 170.79-8.6Q170.79-6.2 171.89-4.78 172.99-3.35 175.04-3.35L175.04-3.35Q177.39-3.35 179.17-4.2 180.94-5.05 182.89-6.75L182.89-6.75 182.89-26.1 187.29-26.1 187.29-5.8 188.39 0ZM220.89 0L216.49 0 215.84-3.45Q214.04-1.45 211.79-0.45 209.54 0.55 206.74 0.55L206.74 0.55Q201.89 0.55 199.29-3.2 196.69-6.95 196.69-12.8L196.69-12.8Q196.69-16.8 198.12-19.95 199.54-23.1 202.22-24.9 204.89-26.7 208.59-26.7L208.59-26.7Q210.39-26.7 211.99-26.28 213.59-25.85 215.39-25.05L215.39-25.05 215.39-37.7 219.79-37.7 219.79-5.8 220.89 0ZM207.44-3.5Q209.84-3.5 211.72-4.48 213.59-5.45 215.39-7.35L215.39-7.35 215.39-21.7Q212.19-22.8 209.04-22.8L209.04-22.8Q205.39-22.8 203.42-20.03 201.44-17.25 201.44-12.9L201.44-12.9Q201.44-8.75 202.87-6.13 204.29-3.5 207.44-3.5L207.44-3.5ZM232.04-32Q230.64-32 229.76-32.9 228.89-33.8 228.89-35.2L228.89-35.2Q228.89-36.6 229.76-37.5 230.64-38.4 232.04-38.4L232.04-38.4Q233.44-38.4 234.31-37.5 235.19-36.6 235.19-35.2L235.19-35.2Q235.19-33.8 234.31-32.9 233.44-32 232.04-32L232.04-32ZM229.84-26.1L234.24-26.1 234.24 0 229.84 0 229.84-26.1ZM255.04 0.6Q249.34 0.6 246.14-3.13 242.94-6.85 242.94-13.05L242.94-13.05Q242.94-19.25 246.14-22.98 249.34-26.7 255.04-26.7L255.04-26.7Q260.74-26.7 263.94-22.98 267.14-19.25 267.14-13.05L267.14-13.05Q267.14-6.85 263.94-3.13 260.74 0.6 255.04 0.6L255.04 0.6ZM255.04-3.2Q258.69-3.2 260.54-5.9 262.39-8.6 262.39-13.05L262.39-13.05Q262.39-17.5 260.54-20.2 258.69-22.9 255.04-22.9L255.04-22.9Q251.39-22.9 249.56-20.2 247.74-17.5 247.74-13.05L247.74-13.05Q247.74-8.6 249.56-5.9 251.39-3.2 255.04-3.2L255.04-3.2ZM283.03 0.6Q280.63 0.6 278.31-0.13 275.98-0.85 273.93-2.2L273.93-2.2 273.93-6.8Q278.48-3.3 282.93-3.3L282.93-3.3Q285.53-3.3 287.13-4.38 288.73-5.45 288.73-7.25L288.73-7.25Q288.73-8.5 287.96-9.3 287.18-10.1 286.03-10.55 284.88-11 282.73-11.65L282.73-11.65Q280.08-12.4 278.36-13.13 276.63-13.85 275.43-15.28 274.23-16.7 274.23-19L274.23-19Q274.23-22.5 276.88-24.6 279.53-26.7 283.83-26.7L283.83-26.7Q288.13-26.7 291.63-24.45L291.63-24.45 291.63-20Q289.68-21.5 287.86-22.15 286.03-22.8 284.03-22.8L284.03-22.8Q281.53-22.8 280.08-21.9 278.63-21 278.63-19.4L278.63-19.4Q278.63-18.25 279.41-17.5 280.18-16.75 281.33-16.3 282.48-15.85 284.63-15.2L284.63-15.2Q287.33-14.4 289.03-13.68 290.73-12.95 291.93-11.48 293.13-10 293.13-7.65L293.13-7.65Q293.13-5.25 291.83-3.38 290.53-1.5 288.23-0.45 285.93 0.6 283.03 0.6L283.03 0.6Z" fill="black"></path></g></svg></g></svg></g></svg></g></svg></g><g><svg viewBox="0 0 124.7592302790904 124.7592302790904" height="124.7592302790904" width="124.7592302790904"><g><svg></svg></g><g id="SvgjsG2063"><svg viewBox="0 0 124.7592302790904 124.7592302790904" height="124.7592302790904" width="124.7592302790904"><g><path d="M0 62.38c0-34.451 27.928-62.38 62.38-62.38 34.451 0 62.38 27.928 62.379 62.38 0 34.451-27.928 62.38-62.379 62.379-34.451 0-62.38-27.928-62.38-62.379zM62.38 119.976c31.81 0 57.597-25.787 57.596-57.596 0-31.81-25.787-57.597-57.596-57.597-31.81 0-57.597 25.787-57.597 57.597 0 31.81 25.787 57.597 57.597 57.596z" fill="black" stroke="transparent"></path></g><g transform="matrix(1,0,0,1,30.255649520808987,30.294446580735)"><svg viewBox="0 0 64.24793123747243 64.1703371176204" height="64.1703371176204" width="64.24793123747243"><g><svg xmlns="http://www.w3.org/2000/svg" xmlns:xlink="http://www.w3.org/1999/xlink" version="1.1" x="0" y="0" viewBox="3.7 4.3 82.8 82.7" enable-background="new 0 0 90 90" xml:space="preserve" height="64.1703371176204" width="64.24793123747243" class="icon-dxe-0" data-fill-palette-color="accent" id="SvgjsSvg2062"><g fill="black"><path fill="black" d="M45.1 87C22.3 87 3.8 68.5 3.8 45.7S22.3 4.3 45.1 4.3 86.5 22.9 86.5 45.7 67.9 87 45.1 87M45.1 6.3C23.4 6.3 5.8 23.9 5.8 45.7 5.8 67.4 23.4 85 45.1 85S84.5 67.3 84.5 45.6 66.8 6.3 45.1 6.3"></path><path fill="black" d="M45 87C33 87 22.6 68.4 22.6 45.6S33 4.3 45 4.3V6.3C34 6.3 24.6 24 24.6 45.7S34 85 45 85z"></path><path fill="black" d="M45 87V85C56 85 65.4 67.3 65.4 45.6S56 6.3 45 6.3V4.3C57 4.3 67.4 22.9 67.4 45.7S57 87 45 87"></path><path fill="black" d="M43 87V85S42.4 85.2 42.3 85.2C43.2 83.8 44.5 69.3 44.5 45.6S43.3 7.4 42.4 6C42.4 6.1 43 6.3 43 6.3V4.3C44 4.3 44.9 4.3 45.8 17.1 46.3 24.7 46.5 34.9 46.5 45.7S46.3 66.7 45.8 74.3C45 87 44 87 43 87"></path><path fill="black" d="M86.4 43H84.4C84.4 32 66.7 22.6 45 22.6 23.4 22.6 5.7 32 5.7 43H3.7C3.7 31 22.3 20.6 45.1 20.6S86.4 31 86.4 43"></path><path fill="black" d="M86.4 44H84.4C84.4 42 70.9 38.3 45 38.3 19.2 38.3 5.7 42 5.7 44H3.7C3.7 37 30.8 36.3 45.1 36.3S86.4 37 86.4 44"></path><path fill="black" d="M45.1 73.4C22.3 73.4 3.7 63 3.7 51H5.7C5.7 62 23.4 71.4 45.1 71.4S84.5 62 84.5 51H86.5C86.4 63 67.9 73.4 45.1 73.4"></path><path fill="black" d="M45.1 57.3C25 57.3 3.7 54 3.7 47H5.7C5.7 49 8.6 50.8 16.7 52.6 24.3 54.3 34.3 55.3 45 55.3S65.8 54.3 73.3 52.6C81.4 50.7 84.3 49 84.3 47H86.3C86.4 54 65.1 57.3 45.1 57.3"></path></g></svg></g></svg></g></svg></g></svg></g></svg></g><defs><mask></mask></defs></svg><rect width="395.52" height="90.48775109396757" fill="black" stroke="none" visibility="hidden"></rect></g></mask><mask><g id="SvgjsG2061"><svg viewBox="0 0 395.52 90.48775109396757" height="90.48775109396757" width="395.52"><g><svg viewBox="0 0 545.3198931725406 124.7592302790904" height="90.48775109396757" width="395.52"><g transform="matrix(1,0,0,1,149.79989317254064,35.8620287548108)"><svg viewBox="0 0 395.52 53.0351727694688" height="53.0351727694688" width="395.52"><g id="SvgjsG2060"><svg viewBox="0 0 395.52 53.0351727694688" height="53.0351727694688" width="395.52" id="SvgjsSvg2059"><g><svg viewBox="0 0 395.52 53.0351727694688" height="53.0351727694688" width="395.52"><g transform="matrix(1,0,0,1,0,0)"><svg width="395.52" viewBox="6.25 -38.4 286.88 39" height="53.0351727694688" data-palette-color="url(#1316310a-f8ad-4aed-a7d7-1f6d3e2562fe)"><g class="wordmark-text-0" data-fill-palette-color="primary" id="SvgjsG2058"><path d="M125.35 0.6Q122.45 0.6 119.3-0.15 116.15-0.9 113.35-2.2L113.35-2.2 113.35-6.95Q116.65-5.15 119.47-4.3 122.3-3.45 125.05-3.45L125.05-3.45Q128.5-3.45 130.4-5 132.3-6.55 132.3-9.25L132.3-9.25Q132.3-11.1 131.25-12.35 130.2-13.6 128.6-14.35 127-15.1 124.3-16L124.3-16Q121.05-17.1 119.07-18.1 117.1-19.1 115.7-20.95 114.3-22.8 114.3-25.75L114.3-25.75Q114.3-30.15 117.5-32.77 120.7-35.4 126.1-35.4L126.1-35.4Q131.35-35.4 135.75-33.15L135.75-33.15 135.75-28.55Q130.8-31.35 126.1-31.35L126.1-31.35Q122.65-31.35 120.7-29.98 118.75-28.6 118.75-26.2L118.75-26.2Q118.75-24.55 119.75-23.45 120.75-22.35 122.2-21.68 123.65-21 126.3-20.05L126.3-20.05Q129.6-18.95 131.7-17.9 133.8-16.85 135.27-14.85 136.75-12.85 136.75-9.7L136.75-9.7Q136.75-6.6 135.35-4.28 133.95-1.95 131.35-0.68 128.75 0.6 125.35 0.6L125.35 0.6ZM151.7-35.4L151.7-26.1 158.9-26.1 158.9-22.3 151.7-22.3 151.7-7.35Q151.7-5.5 152.52-4.38 153.35-3.25 154.95-3.25L154.95-3.25Q156.05-3.25 156.92-3.48 157.8-3.7 158.9-4.2L158.9-4.2 158.9-0.3Q157.75 0.25 156.7 0.43 155.65 0.6 154.15 0.6L154.15 0.6Q150.95 0.6 149.12-1.45 147.3-3.5 147.3-6.9L147.3-6.9 147.3-22.3 142.3-22.3 142.3-26.1 147.3-26.1 147.3-33.1 151.7-35.4ZM188.39 0L183.99 0 183.29-3.65Q180.99-1.5 178.87-0.45 176.74 0.6 173.89 0.6L173.89 0.6Q170.34 0.6 168.37-1.75 166.39-4.1 166.39-8L166.39-8 166.39-26.1 170.79-26.1 170.79-8.6Q170.79-6.2 171.89-4.78 172.99-3.35 175.04-3.35L175.04-3.35Q177.39-3.35 179.17-4.2 180.94-5.05 182.89-6.75L182.89-6.75 182.89-26.1 187.29-26.1 187.29-5.8 188.39 0ZM220.89 0L216.49 0 215.84-3.45Q214.04-1.45 211.79-0.45 209.54 0.55 206.74 0.55L206.74 0.55Q201.89 0.55 199.29-3.2 196.69-6.95 196.69-12.8L196.69-12.8Q196.69-16.8 198.12-19.95 199.54-23.1 202.22-24.9 204.89-26.7 208.59-26.7L208.59-26.7Q210.39-26.7 211.99-26.28 213.59-25.85 215.39-25.05L215.39-25.05 215.39-37.7 219.79-37.7 219.79-5.8 220.89 0ZM207.44-3.5Q209.84-3.5 211.72-4.48 213.59-5.45 215.39-7.35L215.39-7.35 215.39-21.7Q212.19-22.8 209.04-22.8L209.04-22.8Q205.39-22.8 203.42-20.03 201.44-17.25 201.44-12.9L201.44-12.9Q201.44-8.75 202.87-6.13 204.29-3.5 207.44-3.5L207.44-3.5ZM232.04-32Q230.64-32 229.76-32.9 228.89-33.8 228.89-35.2L228.89-35.2Q228.89-36.6 229.76-37.5 230.64-38.4 232.04-38.4L232.04-38.4Q233.44-38.4 234.31-37.5 235.19-36.6 235.19-35.2L235.19-35.2Q235.19-33.8 234.31-32.9 233.44-32 232.04-32L232.04-32ZM229.84-26.1L234.24-26.1 234.24 0 229.84 0 229.84-26.1ZM255.04 0.6Q249.34 0.6 246.14-3.13 242.94-6.85 242.94-13.05L242.94-13.05Q242.94-19.25 246.14-22.98 249.34-26.7 255.04-26.7L255.04-26.7Q260.74-26.7 263.94-22.98 267.14-19.25 267.14-13.05L267.14-13.05Q267.14-6.85 263.94-3.13 260.74 0.6 255.04 0.6L255.04 0.6ZM255.04-3.2Q258.69-3.2 260.54-5.9 262.39-8.6 262.39-13.05L262.39-13.05Q262.39-17.5 260.54-20.2 258.69-22.9 255.04-22.9L255.04-22.9Q251.39-22.9 249.56-20.2 247.74-17.5 247.74-13.05L247.74-13.05Q247.74-8.6 249.56-5.9 251.39-3.2 255.04-3.2L255.04-3.2ZM283.03 0.6Q280.63 0.6 278.31-0.13 275.98-0.85 273.93-2.2L273.93-2.2 273.93-6.8Q278.48-3.3 282.93-3.3L282.93-3.3Q285.53-3.3 287.13-4.38 288.73-5.45 288.73-7.25L288.73-7.25Q288.73-8.5 287.96-9.3 287.18-10.1 286.03-10.55 284.88-11 282.73-11.65L282.73-11.65Q280.08-12.4 278.36-13.13 276.63-13.85 275.43-15.28 274.23-16.7 274.23-19L274.23-19Q274.23-22.5 276.88-24.6 279.53-26.7 283.83-26.7L283.83-26.7Q288.13-26.7 291.63-24.45L291.63-24.45 291.63-20Q289.68-21.5 287.86-22.15 286.03-22.8 284.03-22.8L284.03-22.8Q281.53-22.8 280.08-21.9 278.63-21 278.63-19.4L278.63-19.4Q278.63-18.25 279.41-17.5 280.18-16.75 281.33-16.3 282.48-15.85 284.63-15.2L284.63-15.2Q287.33-14.4 289.03-13.68 290.73-12.95 291.93-11.48 293.13-10 293.13-7.65L293.13-7.65Q293.13-5.25 291.83-3.38 290.53-1.5 288.23-0.45 285.93 0.6 283.03 0.6L283.03 0.6Z" fill="black"></path></g></svg></g></svg></g></svg></g></svg></g><g><svg viewBox="0 0 124.7592302790904 124.7592302790904" height="124.7592302790904" width="124.7592302790904"><g><svg></svg></g><g id="SvgjsG2057"><svg viewBox="0 0 124.7592302790904 124.7592302790904" height="124.7592302790904" width="124.7592302790904"><g><path d="M0 62.38c0-34.451 27.928-62.38 62.38-62.38 34.451 0 62.38 27.928 62.379 62.38 0 34.451-27.928 62.38-62.379 62.379-34.451 0-62.38-27.928-62.38-62.379zM62.38 119.976c31.81 0 57.597-25.787 57.596-57.596 0-31.81-25.787-57.597-57.596-57.597-31.81 0-57.597 25.787-57.597 57.597 0 31.81 25.787 57.597 57.597 57.596z" fill="black" stroke="transparent"></path></g><g transform="matrix(1,0,0,1,30.255649520808987,30.294446580735)"><svg viewBox="0 0 64.24793123747243 64.1703371176204" height="64.1703371176204" width="64.24793123747243"><g><svg xmlns="http://www.w3.org/2000/svg" xmlns:xlink="http://www.w3.org/1999/xlink" version="1.1" x="0" y="0" viewBox="3.7 4.3 82.8 82.7" enable-background="new 0 0 90 90" xml:space="preserve" height="64.1703371176204" width="64.24793123747243" class="icon-dxe-0" data-fill-palette-color="accent" id="SvgjsSvg2056"><g fill="black"><path fill="black" d="M45.1 87C22.3 87 3.8 68.5 3.8 45.7S22.3 4.3 45.1 4.3 86.5 22.9 86.5 45.7 67.9 87 45.1 87M45.1 6.3C23.4 6.3 5.8 23.9 5.8 45.7 5.8 67.4 23.4 85 45.1 85S84.5 67.3 84.5 45.6 66.8 6.3 45.1 6.3"></path><path fill="black" d="M45 87C33 87 22.6 68.4 22.6 45.6S33 4.3 45 4.3V6.3C34 6.3 24.6 24 24.6 45.7S34 85 45 85z"></path><path fill="black" d="M45 87V85C56 85 65.4 67.3 65.4 45.6S56 6.3 45 6.3V4.3C57 4.3 67.4 22.9 67.4 45.7S57 87 45 87"></path><path fill="black" d="M43 87V85S42.4 85.2 42.3 85.2C43.2 83.8 44.5 69.3 44.5 45.6S43.3 7.4 42.4 6C42.4 6.1 43 6.3 43 6.3V4.3C44 4.3 44.9 4.3 45.8 17.1 46.3 24.7 46.5 34.9 46.5 45.7S46.3 66.7 45.8 74.3C45 87 44 87 43 87"></path><path fill="black" d="M86.4 43H84.4C84.4 32 66.7 22.6 45 22.6 23.4 22.6 5.7 32 5.7 43H3.7C3.7 31 22.3 20.6 45.1 20.6S86.4 31 86.4 43"></path><path fill="black" d="M86.4 44H84.4C84.4 42 70.9 38.3 45 38.3 19.2 38.3 5.7 42 5.7 44H3.7C3.7 37 30.8 36.3 45.1 36.3S86.4 37 86.4 44"></path><path fill="black" d="M45.1 73.4C22.3 73.4 3.7 63 3.7 51H5.7C5.7 62 23.4 71.4 45.1 71.4S84.5 62 84.5 51H86.5C86.4 63 67.9 73.4 45.1 73.4"></path><path fill="black" d="M45.1 57.3C25 57.3 3.7 54 3.7 47H5.7C5.7 49 8.6 50.8 16.7 52.6 24.3 54.3 34.3 55.3 45 55.3S65.8 54.3 73.3 52.6C81.4 50.7 84.3 49 84.3 47H86.3C86.4 54 65.1 57.3 45.1 57.3"></path></g></svg></g></svg></g></svg></g></svg></g></svg></g><defs><mask></mask></defs><mask><g id="SvgjsG2055"><svg viewBox="0 0 395.52 90.48775109396757" height="90.48775109396757" width="395.52"><g><svg viewBox="0 0 545.3198931725406 124.7592302790904" height="90.48775109396757" width="395.52"><g transform="matrix(1,0,0,1,149.79989317254064,35.8620287548108)"><svg viewBox="0 0 395.52 53.0351727694688" height="53.0351727694688" width="395.52"><g id="SvgjsG2054"><svg viewBox="0 0 395.52 53.0351727694688" height="53.0351727694688" width="395.52" id="SvgjsSvg2053"><g><svg viewBox="0 0 395.52 53.0351727694688" height="53.0351727694688" width="395.52"><g transform="matrix(1,0,0,1,0,0)"><svg width="395.52" viewBox="6.25 -38.4 286.88 39" height="53.0351727694688" data-palette-color="url(#1316310a-f8ad-4aed-a7d7-1f6d3e2562fe)"><g class="wordmark-text-0" data-fill-palette-color="primary" id="SvgjsG2052"><path d="M18-34.8Q25.75-34.8 29.85-30.2 33.95-25.6 33.95-17.4L33.95-17.4Q33.95-9.2 29.85-4.6 25.75 0 18 0L18 0 6.25 0 6.25-34.8 18-34.8ZM18.35-4.2Q23.75-4.2 26.48-7.73 29.2-11.25 29.2-17.4L29.2-17.4Q29.2-23.55 26.48-27.08 23.75-30.6 18.35-30.6L18.35-30.6 10.65-30.6 10.65-4.2 18.35-4.2ZM45.25 0L45.25-34.8 49.65-34.8 49.65-4.2 65.35-4.2 65.35 0 45.25 0ZM88.55-18.15Q91.59-16.95 93.32-14.68 95.05-12.4 95.05-9.4L95.05-9.4Q95.05-6.5 93.4-4.23 91.75-1.95 88.77-0.68 85.8 0.6 82 0.6L82 0.6Q79.3 0.6 76.87-0.1 74.45-0.8 71.95-2.25L71.95-2.25 71.95-6.85 72.15-6.85Q74.7-5.1 77.07-4.28 79.45-3.45 81.95-3.45L81.95-3.45Q85.75-3.45 88.09-5.2 90.45-6.95 90.45-9.75L90.45-9.75Q90.45-12.7 87.82-14.43 85.2-16.15 80.75-16.15L80.75-16.15 78.55-16.15 78.55-20.1 80.75-20.1Q85.05-20.1 87.4-21.58 89.75-23.05 89.75-25.7L89.75-25.7Q89.75-28.3 87.67-29.8 85.59-31.3 82.05-31.3L82.05-31.3Q79.9-31.3 77.82-30.68 75.75-30.05 73.2-28.6L73.2-28.6 73-28.6 73-32.95Q77.45-35.4 82.34-35.4L82.34-35.4Q85.9-35.4 88.59-34.27 91.3-33.15 92.77-31.1 94.25-29.05 94.25-26.35L94.25-26.35Q94.25-23.6 92.72-21.45 91.2-19.3 88.55-18.15L88.55-18.15Z" fill="black"></path><path d="M125.35 0.6Q122.45 0.6 119.3-0.15 116.15-0.9 113.35-2.2L113.35-2.2 113.35-6.95Q116.65-5.15 119.47-4.3 122.3-3.45 125.05-3.45L125.05-3.45Q128.5-3.45 130.4-5 132.3-6.55 132.3-9.25L132.3-9.25Q132.3-11.1 131.25-12.35 130.2-13.6 128.6-14.35 127-15.1 124.3-16L124.3-16Q121.05-17.1 119.07-18.1 117.1-19.1 115.7-20.95 114.3-22.8 114.3-25.75L114.3-25.75Q114.3-30.15 117.5-32.77 120.7-35.4 126.1-35.4L126.1-35.4Q131.35-35.4 135.75-33.15L135.75-33.15 135.75-28.55Q130.8-31.35 126.1-31.35L126.1-31.35Q122.65-31.35 120.7-29.98 118.75-28.6 118.75-26.2L118.75-26.2Q118.75-24.55 119.75-23.45 120.75-22.35 122.2-21.68 123.65-21 126.3-20.05L126.3-20.05Q129.6-18.95 131.7-17.9 133.8-16.85 135.27-14.85 136.75-12.85 136.75-9.7L136.75-9.7Q136.75-6.6 135.35-4.28 133.95-1.95 131.35-0.68 128.75 0.6 125.35 0.6L125.35 0.6ZM151.7-35.4L151.7-26.1 158.9-26.1 158.9-22.3 151.7-22.3 151.7-7.35Q151.7-5.5 152.52-4.38 153.35-3.25 154.95-3.25L154.95-3.25Q156.05-3.25 156.92-3.48 157.8-3.7 158.9-4.2L158.9-4.2 158.9-0.3Q157.75 0.25 156.7 0.43 155.65 0.6 154.15 0.6L154.15 0.6Q150.95 0.6 149.12-1.45 147.3-3.5 147.3-6.9L147.3-6.9 147.3-22.3 142.3-22.3 142.3-26.1 147.3-26.1 147.3-33.1 151.7-35.4ZM188.39 0L183.99 0 183.29-3.65Q180.99-1.5 178.87-0.45 176.74 0.6 173.89 0.6L173.89 0.6Q170.34 0.6 168.37-1.75 166.39-4.1 166.39-8L166.39-8 166.39-26.1 170.79-26.1 170.79-8.6Q170.79-6.2 171.89-4.78 172.99-3.35 175.04-3.35L175.04-3.35Q177.39-3.35 179.17-4.2 180.94-5.05 182.89-6.75L182.89-6.75 182.89-26.1 187.29-26.1 187.29-5.8 188.39 0ZM220.89 0L216.49 0 215.84-3.45Q214.04-1.45 211.79-0.45 209.54 0.55 206.74 0.55L206.74 0.55Q201.89 0.55 199.29-3.2 196.69-6.95 196.69-12.8L196.69-12.8Q196.69-16.8 198.12-19.95 199.54-23.1 202.22-24.9 204.89-26.7 208.59-26.7L208.59-26.7Q210.39-26.7 211.99-26.28 213.59-25.85 215.39-25.05L215.39-25.05 215.39-37.7 219.79-37.7 219.79-5.8 220.89 0ZM207.44-3.5Q209.84-3.5 211.72-4.48 213.59-5.45 215.39-7.35L215.39-7.35 215.39-21.7Q212.19-22.8 209.04-22.8L209.04-22.8Q205.39-22.8 203.42-20.03 201.44-17.25 201.44-12.9L201.44-12.9Q201.44-8.75 202.87-6.13 204.29-3.5 207.44-3.5L207.44-3.5ZM232.04-32Q230.64-32 229.76-32.9 228.89-33.8 228.89-35.2L228.89-35.2Q228.89-36.6 229.76-37.5 230.64-38.4 232.04-38.4L232.04-38.4Q233.44-38.4 234.31-37.5 235.19-36.6 235.19-35.2L235.19-35.2Q235.19-33.8 234.31-32.9 233.44-32 232.04-32L232.04-32ZM229.84-26.1L234.24-26.1 234.24 0 229.84 0 229.84-26.1ZM255.04 0.6Q249.34 0.6 246.14-3.13 242.94-6.85 242.94-13.05L242.94-13.05Q242.94-19.25 246.14-22.98 249.34-26.7 255.04-26.7L255.04-26.7Q260.74-26.7 263.94-22.98 267.14-19.25 267.14-13.05L267.14-13.05Q267.14-6.85 263.94-3.13 260.74 0.6 255.04 0.6L255.04 0.6ZM255.04-3.2Q258.69-3.2 260.54-5.9 262.39-8.6 262.39-13.05L262.39-13.05Q262.39-17.5 260.54-20.2 258.69-22.9 255.04-22.9L255.04-22.9Q251.39-22.9 249.56-20.2 247.74-17.5 247.74-13.05L247.74-13.05Q247.74-8.6 249.56-5.9 251.39-3.2 255.04-3.2L255.04-3.2ZM283.03 0.6Q280.63 0.6 278.31-0.13 275.98-0.85 273.93-2.2L273.93-2.2 273.93-6.8Q278.48-3.3 282.93-3.3L282.93-3.3Q285.53-3.3 287.13-4.38 288.73-5.45 288.73-7.25L288.73-7.25Q288.73-8.5 287.96-9.3 287.18-10.1 286.03-10.55 284.88-11 282.73-11.65L282.73-11.65Q280.08-12.4 278.36-13.13 276.63-13.85 275.43-15.28 274.23-16.7 274.23-19L274.23-19Q274.23-22.5 276.88-24.6 279.53-26.7 283.83-26.7L283.83-26.7Q288.13-26.7 291.63-24.45L291.63-24.45 291.63-20Q289.68-21.5 287.86-22.15 286.03-22.8 284.03-22.8L284.03-22.8Q281.53-22.8 280.08-21.9 278.63-21 278.63-19.4L278.63-19.4Q278.63-18.25 279.41-17.5 280.18-16.75 281.33-16.3 282.48-15.85 284.63-15.2L284.63-15.2Q287.33-14.4 289.03-13.68 290.73-12.95 291.93-11.48 293.13-10 293.13-7.65L293.13-7.65Q293.13-5.25 291.83-3.38 290.53-1.5 288.23-0.45 285.93 0.6 283.03 0.6L283.03 0.6Z" fill="black"></path></g></svg></g></svg></g></svg></g></svg></g><g><svg viewBox="0 0 124.7592302790904 124.7592302790904" height="124.7592302790904" width="124.7592302790904"><g><svg></svg></g><g id="SvgjsG2051"><svg viewBox="0 0 124.7592302790904 124.7592302790904" height="124.7592302790904" width="124.7592302790904"><g><path d="M0 62.38c0-34.451 27.928-62.38 62.38-62.38 34.451 0 62.38 27.928 62.379 62.38 0 34.451-27.928 62.38-62.379 62.379-34.451 0-62.38-27.928-62.38-62.379zM62.38 119.976c31.81 0 57.597-25.787 57.596-57.596 0-31.81-25.787-57.597-57.596-57.597-31.81 0-57.597 25.787-57.597 57.597 0 31.81 25.787 57.597 57.597 57.596z" fill="black" stroke="transparent"></path></g><g transform="matrix(1,0,0,1,30.255649520808987,30.294446580735)"><svg viewBox="0 0 64.24793123747243 64.1703371176204" height="64.1703371176204" width="64.24793123747243"><g><svg xmlns="http://www.w3.org/2000/svg" xmlns:xlink="http://www.w3.org/1999/xlink" version="1.1" x="0" y="0" viewBox="3.7 4.3 82.8 82.7" enable-background="new 0 0 90 90" xml:space="preserve" height="64.1703371176204" width="64.24793123747243" class="icon-dxe-0" data-fill-palette-color="accent" id="SvgjsSvg2050"><g fill="black"><path fill="black" d="M45.1 87C22.3 87 3.8 68.5 3.8 45.7S22.3 4.3 45.1 4.3 86.5 22.9 86.5 45.7 67.9 87 45.1 87M45.1 6.3C23.4 6.3 5.8 23.9 5.8 45.7 5.8 67.4 23.4 85 45.1 85S84.5 67.3 84.5 45.6 66.8 6.3 45.1 6.3"></path><path fill="black" d="M45 87C33 87 22.6 68.4 22.6 45.6S33 4.3 45 4.3V6.3C34 6.3 24.6 24 24.6 45.7S34 85 45 85z"></path><path fill="black" d="M45 87V85C56 85 65.4 67.3 65.4 45.6S56 6.3 45 6.3V4.3C57 4.3 67.4 22.9 67.4 45.7S57 87 45 87"></path><path fill="black" d="M43 87V85S42.4 85.2 42.3 85.2C43.2 83.8 44.5 69.3 44.5 45.6S43.3 7.4 42.4 6C42.4 6.1 43 6.3 43 6.3V4.3C44 4.3 44.9 4.3 45.8 17.1 46.3 24.7 46.5 34.9 46.5 45.7S46.3 66.7 45.8 74.3C45 87 44 87 43 87"></path><path fill="black" d="M86.4 43H84.4C84.4 32 66.7 22.6 45 22.6 23.4 22.6 5.7 32 5.7 43H3.7C3.7 31 22.3 20.6 45.1 20.6S86.4 31 86.4 43"></path><path fill="black" d="M86.4 44H84.4C84.4 42 70.9 38.3 45 38.3 19.2 38.3 5.7 42 5.7 44H3.7C3.7 37 30.8 36.3 45.1 36.3S86.4 37 86.4 44"></path><path fill="black" d="M45.1 73.4C22.3 73.4 3.7 63 3.7 51H5.7C5.7 62 23.4 71.4 45.1 71.4S84.5 62 84.5 51H86.5C86.4 63 67.9 73.4 45.1 73.4"></path><path fill="black" d="M45.1 57.3C25 57.3 3.7 54 3.7 47H5.7C5.7 49 8.6 50.8 16.7 52.6 24.3 54.3 34.3 55.3 45 55.3S65.8 54.3 73.3 52.6C81.4 50.7 84.3 49 84.3 47H86.3C86.4 54 65.1 57.3 45.1 57.3"></path></g></svg></g></svg></g></svg></g></svg></g></svg></g><defs><mask></mask></defs></svg><rect width="395.52" height="90.48775109396757" fill="black" stroke="none" visibility="hidden"></rect></g></mask></svg><rect width="395.52" height="90.48775109396757" fill="black" stroke="none" visibility="hidden"></rect></g></mask></svg><rect width="395.52" height="90.48775109396757" fill="black" stroke="none" visibility="hidden"></rect></g></mask><linearGradient x1="0" x2="1" y1="0.548" y2="0.55" id="957f1469-9ee2-4eb3-9fe2-f8cb3b4b7fe2"><stop stop-color="#ff6cab" offset="0"></stop><stop stop-color="#7366ff" offset="1"></stop></linearGradient><rect width="395.52" height="90.48775109396757" fill="url(#957f1469-9ee2-4eb3-9fe2-f8cb3b4b7fe2)" mask="url(#74c62e06-a9ab-4dfa-ab4c-0a8d0f4e7630)" data-fill-palette-color="accent"></rect></svg><rect width="395.52" height="90.48775109396757" fill="none" stroke="none" visibility="hidden"></rect></g></svg></g></svg>